<svg width="32" height="32" viewBox="0 0 32 32" fill="none" xmlns="http://www.w3.org/2000/svg">
  <rect width="32" height="32" rx="6" fill="#021a5a"/>
  <g transform="translate(4.5, 5.5)">
    <path d="M18.5789 1.50131L22.9286 1.18945C22.9862 1.18737 23.0024 1.26724 22.9476 1.286L18.3963 2.79251C18.3963 2.79251 18.3942 2.79251 18.3935 2.7932C18.3921 2.7932 18.3914 2.7939 18.3899 2.7939C18.319 2.80918 17.0298 3.10576 17.0993 4.8887C17.1654 6.57857 16.8668 10.889 12.6239 13.8139C11.407 14.6529 10.6167 15.9747 10.4501 17.4319C10.3574 18.2438 10.4775 19.6711 10.6286 20.8859C10.6405 20.9818 10.5105 21.0255 10.4614 20.9422C9.83818 19.8941 8.01147 16.1587 8.22719 11.4586C8.23911 11.1954 8.022 10.9766 7.75575 10.9821C6.40257 11.0099 2.68313 10.8279 0.273282 8.56922C0.269067 8.56502 0.262041 8.55948 0.25361 8.55184C0.148926 8.46156 -0.229763 8.13441 0.259933 8.07398L7.13254 7.19953C7.73045 7.12521 8.5581 7.00087 8.98246 6.57719C9.24027 6.31953 9.27892 6.20003 9.41664 5.75135C9.96113 3.97397 11.2194 0.213588 15.1539 0.00174618C15.1539 0.00174618 16.6202 -0.100355 17.9558 1.25683C18.1188 1.42283 18.3457 1.51173 18.5797 1.49992L18.5789 1.50131ZM4.37351 6.70223C4.00047 6.74876 3.6288 6.57651 3.41029 6.25491L1.32434 3.19397C1.24354 3.0752 1.36017 2.92587 1.48874 2.98213L8.159 5.91529C8.31149 5.98264 8.28409 6.21254 8.12178 6.23269L4.37351 6.70223Z" fill="white"/>
  </g>
</svg>
