<svg width="17" height="16" viewBox="0 0 17 16" fill="none" xmlns="http://www.w3.org/2000/svg">
<g clip-path="url(#clip0_14_715)">
<path d="M5.66733 0.000192973H10.6978L5.47567 15.4548C5.36562 15.7805 5.05991 15.9998 4.71583 15.9998H0.800898C0.542958 15.9998 0.300796 15.8758 0.150343 15.6665C-0.000109941 15.4572 -0.0404312 15.1884 0.0420225 14.9442L4.90729 0.545149C5.0173 0.219377 5.32312 0 5.66733 0V0.000192973Z" fill="url(#paint0_linear_14_715)"/>
<path d="M12.9773 10.3662H5.00024C4.84847 10.366 4.71205 10.4587 4.65637 10.5997C4.60069 10.7407 4.63709 10.9014 4.74811 11.0048L9.874 15.7835C10.0232 15.9226 10.2197 15.9999 10.4238 15.9999H14.9408L12.9773 10.3662Z" fill="#0078D4"/>
<path d="M5.66734 5.85424e-06C5.31904 -0.00132331 5.01036 0.223798 4.90557 0.555582L0.0480256 14.9309C-0.0400047 15.176 -0.0029315 15.4486 0.147373 15.6613C0.297677 15.8741 0.542351 16.0003 0.803038 15.9996H4.81901C5.12352 15.9453 5.37521 15.7315 5.47781 15.44L6.4465 12.5884L9.90665 15.812C10.0517 15.9318 10.2335 15.9981 10.4217 15.9996H14.9218L12.9481 10.366L7.19456 10.3673L10.716 5.85424e-06H5.66734Z" fill="url(#paint1_linear_14_715)"/>
<path d="M12.0925 0.544184C11.9826 0.218937 11.6773 0 11.3336 0H5.72723C6.07087 0 6.37621 0.218974 6.48611 0.544184L11.3516 14.9438C11.4341 15.188 11.3938 15.4569 11.2433 15.6663C11.0929 15.8756 10.8507 15.9998 10.5927 15.9998H16.1993C16.4572 15.9998 16.6994 15.8755 16.8498 15.6662C17.0002 15.4569 17.0404 15.188 16.9579 14.9438L12.0925 0.544184Z" fill="url(#paint2_linear_14_715)"/>
</g>
<defs>
<linearGradient id="paint0_linear_14_715" x1="630.869" y1="118.574" x2="139.224" y2="1572.73" gradientUnits="userSpaceOnUse">
<stop stop-color="#114A8B"/>
<stop offset="1" stop-color="#0669BC"/>
</linearGradient>
<linearGradient id="paint1_linear_14_715" x1="891.056" y1="836.988" x2="784.578" y2="873.031" gradientUnits="userSpaceOnUse">
<stop stop-opacity="0.3"/>
<stop offset="0.071" stop-opacity="0.2"/>
<stop offset="0.321" stop-opacity="0.1"/>
<stop offset="0.623" stop-opacity="0.05"/>
<stop offset="1" stop-opacity="0"/>
</linearGradient>
<linearGradient id="paint2_linear_14_715" x1="425.965" y1="73.599" x2="962.588" y2="1504.93" gradientUnits="userSpaceOnUse">
<stop stop-color="#3CCBF4"/>
<stop offset="1" stop-color="#2892DF"/>
</linearGradient>
<clipPath id="clip0_14_715">
<rect width="17" height="16" fill="white"/>
</clipPath>
</defs>
</svg>
