<svg width="18" height="16" viewBox="0 0 18 16" fill="none" xmlns="http://www.w3.org/2000/svg">
<g clip-path="url(#clip0_14_741)">
<path d="M0.584092 4.90453e-05C0.265629 -0.00403842 0.00411137 0.247879 4.89664e-05 0.562685C-0.000386291 0.595744 0.00208017 0.628802 0.00744835 0.66143L2.45563 15.3528C2.51859 15.7239 2.84199 15.9968 3.2227 15.9999H14.9676C15.2533 16.0035 15.4986 15.7998 15.5443 15.521L17.9925 0.664298C18.0435 0.353507 17.8299 0.0607157 17.5155 0.0103036C17.4825 0.00499704 17.4492 0.0025589 17.4157 0.00298916L0.584092 4.90453e-05ZM10.8929 10.6181H7.14429L6.12927 5.37607H11.8013L10.8929 10.6181Z" fill="#2684FF"/>
<path d="M17.199 5.36865H11.7909L10.8832 10.6065H7.13757L2.71484 15.7959C2.855 15.9158 3.03374 15.9824 3.21902 15.9839H14.9574C15.2429 15.9875 15.488 15.784 15.5337 15.5054L17.199 5.36865Z" fill="url(#paint0_linear_14_741)"/>
</g>
<defs>
<linearGradient id="paint0_linear_14_741" x1="18.4536" y1="6.84408" x2="12.302" y2="15.6798" gradientUnits="userSpaceOnUse">
<stop offset="0.18" stop-color="#0052CC"/>
<stop offset="1" stop-color="#2684FF"/>
</linearGradient>
<clipPath id="clip0_14_741">
<rect width="18" height="16" fill="white"/>
</clipPath>
</defs>
</svg>
