<svg width="17" height="18" viewBox="0 0 17 18" fill="none" xmlns="http://www.w3.org/2000/svg">
<mask id="mask0_14_687" style="mask-type:luminance" maskUnits="userSpaceOnUse" x="0" y="0" width="17" height="18">
<path d="M16.175 0H0V17.25H16.175V0Z" fill="white"/>
</mask>
<g mask="url(#mask0_14_687)">
<path d="M14.4013 8.42925L14.795 13.4543L7.82501 14.705L7.22501 9.68L8.22076 9.541C8.38276 9.6105 8.49876 9.6335 8.68401 9.68C8.98501 9.7495 9.33251 9.842 9.84151 9.56425C9.95726 9.49475 10.212 9.28625 10.3048 9.1475L14.4013 8.42925ZM3.63301 14.4043C3.51726 14.2192 3.30876 14.0105 2.98451 13.7557C2.52126 13.3853 2.68351 12.7368 2.96126 12.3433C3.31126 11.6718 5.13801 10.7917 5.04551 9.70325C4.99926 9.3095 4.95301 8.8 4.58226 8.4295C4.55901 8.5685 4.58226 8.7075 4.58226 8.7075C4.58226 8.7075 4.42026 8.5225 4.35076 8.24425C4.28126 8.15175 4.21176 8.10525 4.14226 7.96625C4.09601 8.12825 4.09601 8.2905 4.09601 8.2905C4.09601 8.2905 3.98026 7.9895 3.95701 7.758C3.88751 7.87375 3.86451 8.08225 3.86451 8.08225C3.86451 8.08225 3.70251 7.619 3.74876 7.36475C3.67926 7.15625 3.44776 6.71625 3.51726 5.74375C3.91101 6.02175 4.79101 5.95225 5.13826 5.44275C5.25401 5.28075 5.32326 4.81775 5.09201 3.91425C4.93001 3.33525 4.53626 2.4785 4.37451 2.15425L4.35126 2.1775C4.44376 2.4325 4.60626 2.988 4.67551 3.266C4.86051 4.0765 4.93051 4.3545 4.83751 4.725C4.76801 5.04925 4.58251 5.2575 4.09651 5.48925C3.63326 5.72075 2.98501 5.13925 2.96151 5.11875C2.49826 4.74825 2.15101 4.14375 2.10476 3.86825C2.05851 3.544 2.28976 3.35875 2.40576 3.104C2.24376 3.15025 2.05576 3.243 2.05576 3.243C2.05576 3.243 2.26426 3.0115 2.54201 2.82625C2.6476 2.76466 2.74823 2.69495 2.84301 2.61775H2.54501C2.54501 2.61775 2.82301 2.45575 3.12401 2.36275H2.70751L3.81901 1.8765C4.16901 1.7375 4.49051 1.784 4.67576 2.0385C4.93076 2.3885 5.18526 2.571 5.71776 2.71C6.04201 2.571 6.15776 2.4785 6.57451 2.36C6.94501 1.94325 7.24601 1.89675 7.24601 1.89675C7.24601 1.89675 7.03751 2.08175 7.01451 2.2905C7.22301 2.1285 7.45451 1.9895 7.45451 1.9895C7.45451 1.9895 7.36201 2.10525 7.29251 2.2675L7.31576 2.29075C7.57076 2.15175 7.84826 2.03575 7.84826 2.03575C7.84826 2.03575 7.75576 2.12825 7.66326 2.26725C7.84826 2.26725 8.21901 2.26725 8.35826 2.2905C9.21501 2.31375 9.40026 1.38725 9.72451 1.2485C10.1413 1.1095 10.3265 1.017 11.0213 1.71175C11.6233 2.31375 12.0863 3.356 11.855 3.5875C11.67 3.7725 11.276 3.518 10.836 2.9855C10.6045 2.7075 10.4423 2.3605 10.3498 1.9435C10.3035 1.5935 10.0488 1.38775 10.0488 1.38775C10.0488 1.38775 10.2108 1.73775 10.2108 2.03625C10.2108 2.19825 10.234 2.8005 10.4888 3.14775C10.4655 3.194 10.4425 3.40275 10.4193 3.42575C10.1183 3.05525 9.44426 2.80075 9.35426 2.70825C9.72476 3.00925 10.5585 3.68325 10.8828 4.32925C11.1838 4.95425 10.9985 5.51025 11.1608 5.64925C11.207 5.6955 11.8093 6.43675 11.925 6.83025C12.1335 7.50175 11.9483 8.1965 11.67 8.61325L10.929 8.729C10.8322 8.71219 10.7385 8.68093 10.651 8.63625C10.6973 8.54375 10.813 8.312 10.813 8.26575L10.7668 8.19625C10.5353 8.5205 10.1418 8.84475 9.81726 9.03C9.40051 9.2615 8.91401 9.2385 8.59226 9.1225C7.68901 8.8445 6.83226 8.2425 6.64726 8.0805C6.64726 8.0805 6.64726 8.19625 6.67051 8.2425C7.04551 8.63716 7.46517 8.98685 7.92101 9.2845L6.85601 9.40025L7.36551 13.337C7.13401 13.3602 7.11051 13.3832 6.85601 13.4295C6.64751 12.6652 6.23101 12.179 5.76751 11.878C5.37376 11.623 4.81801 11.5538 4.28551 11.6695L4.26226 11.7157C4.63276 11.6695 5.07276 11.739 5.51276 12.0168C5.95276 12.2945 6.30026 13.0125 6.43901 13.4292C6.60101 13.985 6.71701 14.5642 6.27701 15.1892C5.95276 15.6292 5.02651 15.8842 4.28551 15.3512C4.49401 15.6755 4.74876 15.9303 5.11926 15.9762C5.65176 16.0457 6.16126 15.953 6.53176 15.6058C6.83276 15.3048 6.99501 14.6562 6.94851 13.9615L7.43476 13.892L7.59676 15.117L15.49 14.175L14.795 7.87625L14.4013 7.94575L13.614 0L0.46051 1.5285L2.08151 14.6355L3.63301 14.4043Z" fill="#5C2D90"/>
</g>
<path d="M9.89126 7.51492C10.2413 7.76992 10.5398 7.93167 10.8408 7.90867C11.0258 7.88542 11.2113 7.58442 11.327 7.30667C11.4195 7.12167 11.4195 6.91292 11.2808 6.84342C11.2113 6.82017 10.9308 6.82017 10.725 6.84342C10.3313 6.88967 9.9375 7.02842 9.845 7.09842C9.706 7.19092 9.77551 7.42267 9.89126 7.51517M9.98375 4.80517V4.82842L10.007 4.87467C10.0995 5.05967 10.192 5.24517 10.3775 5.33792C10.4238 5.33792 10.47 5.31467 10.5165 5.31467C10.6785 5.31467 10.7715 5.33792 10.8408 5.36092V5.22192C10.8175 4.99042 10.887 4.57342 10.424 4.34192C10.239 4.24942 10.0073 4.29567 9.9145 4.38817H9.96076C10.0765 4.43442 10.007 4.48067 9.984 4.52717C9.96075 4.61967 9.9375 4.64292 9.98375 4.80517Z" fill="#5C2D90"/>
<path d="M7.89951 4.85162C8.01526 4.75912 7.36701 4.62012 6.85751 4.94412C6.48701 5.19912 6.48701 5.73162 6.83426 6.03262C6.86909 6.04993 6.90045 6.07349 6.92676 6.10212C7.01926 6.05587 7.15826 6.00962 7.27676 5.96312C7.50826 5.89362 7.69351 5.84737 7.85576 5.82412C7.92526 5.73162 8.01776 5.59262 7.99476 5.33787C7.97151 4.98787 7.69376 5.05987 7.90226 4.85162M11.6768 10.4766L10.5653 12.3266L9.26851 11.9329L8.13351 13.6696L8.17976 14.2254L14.386 13.0904L14.0155 9.22287L12.9965 11.3534L11.6768 10.4766Z" fill="#5C2D90"/>
</svg>
