<svg width="16" height="16" viewBox="0 0 16 16" fill="none" xmlns="http://www.w3.org/2000/svg">
<path d="M3.28045 0C5.09215 0 6.5609 1.46827 6.5609 3.27963C6.5609 5.05988 5.14178 6.50779 3.37292 6.55691C3.37292 6.70754 3.37957 6.99213 3.46482 7.16396C3.58307 7.40228 4.29245 7.84601 4.98813 7.84601H5.23807C5.39513 6.72784 6.35533 5.86734 7.51705 5.86734C8.67407 5.86734 9.63147 6.72084 9.7943 7.83238H11.0874C11.2503 6.72084 12.2076 5.86734 13.3646 5.86734C14.636 5.86734 15.6666 6.89771 15.6666 8.16881C15.6666 9.43984 14.636 10.4702 13.3646 10.4702C12.2076 10.4702 11.2502 9.61668 11.0874 8.50513H9.79437C9.63152 9.61668 8.67413 10.4702 7.51705 10.4702C6.36222 10.4702 5.40613 9.61998 5.24058 8.51146L4.96425 8.51969C4.50925 8.51628 4.02857 8.39478 3.64248 8.13246C3.53723 8.06093 3.43353 7.98578 3.32537 7.91458L3.32533 8.06401C3.32475 8.11231 3.31603 8.83858 3.31533 9.64494L3.31532 9.81568C3.31563 10.3445 3.31982 10.8894 3.33227 11.2868C3.35957 12.1587 4.06877 12.8624 4.85137 13.0271C4.95308 13.0485 5.12798 13.0512 5.23818 13.0417C5.39553 11.9239 6.3556 11.0637 7.51705 11.0637C8.78842 11.0637 9.81908 12.0942 9.81908 13.3652C9.81908 14.6362 8.78842 15.6667 7.51705 15.6667C6.36845 15.6667 5.41655 14.8256 5.2434 13.7259H5.04427C3.54883 13.6442 2.61908 12.2726 2.6353 11.1602C2.65577 9.76019 2.64035 8.35959 2.64012 6.95921V6.49631C1.13498 6.19851 0 4.87174 0 3.27963C0 1.46827 1.46869 0 3.28045 0ZM7.51705 11.7365C6.61737 11.7365 5.88798 12.4657 5.88798 13.3652C5.88798 14.2647 6.61737 14.9939 7.51705 14.9939C8.4168 14.9939 9.14618 14.2647 9.14618 13.3652C9.14618 12.4657 8.4168 11.7365 7.51705 11.7365ZM7.51705 6.54009C6.61737 6.54009 5.88798 7.26929 5.88798 8.16881C5.88798 9.06828 6.61737 9.79748 7.51705 9.79748C8.4168 9.79748 9.14618 9.06828 9.14618 8.16881C9.14618 7.26929 8.4168 6.54009 7.51705 6.54009ZM13.3646 6.54009C12.4649 6.54009 11.7355 7.26929 11.7355 8.16881C11.7355 9.06828 12.4649 9.79748 13.3646 9.79748C14.2643 9.79748 14.9937 9.06828 14.9937 8.16881C14.9937 7.26929 14.2643 6.54009 13.3646 6.54009ZM14.2924 7.48306C14.4206 7.61094 14.4241 7.81641 14.3028 7.94849L14.293 7.95881L13.2949 8.95906C13.1678 9.08654 12.9636 9.09081 12.8312 8.97118L12.8207 8.96119L12.332 8.48018C12.1996 8.34984 12.198 8.13686 12.3284 8.00449C12.4554 7.87549 12.6609 7.87063 12.7938 7.99104L12.8041 8.00086L13.0546 8.24729L13.8166 7.48368C13.9478 7.35209 14.1608 7.35188 14.2924 7.48306ZM8.41803 7.47813C8.54622 7.60601 8.54975 7.81148 8.42847 7.94363L8.41865 7.95388L7.42055 8.95414C7.29337 9.08163 7.0892 9.08588 6.95685 8.96624L6.94632 8.95628L6.45767 8.47526C6.32527 8.34491 6.32358 8.13193 6.45397 7.99958C6.58098 7.87058 6.7865 7.86569 6.91945 7.98618L6.92977 7.99593L7.1802 8.24238L7.94222 7.47874C8.07345 7.34723 8.28648 7.34694 8.41803 7.47813ZM3.28045 0.672745C1.84037 0.672745 0.672913 1.83984 0.672913 3.27963C0.672913 4.71936 1.84037 5.88653 3.28045 5.88653C4.72053 5.88653 5.88798 4.71936 5.88798 3.27963C5.88798 1.83984 4.72053 0.672745 3.28045 0.672745ZM3.00913 1.72153C3.55773 2.05111 4.09892 2.39203 4.63277 2.74421C5.07997 3.03921 5.07885 3.57421 4.62665 3.86988C4.08328 4.22543 3.53127 4.56634 2.97073 4.89261C2.51448 5.15818 2.0038 4.85281 1.99142 4.32078C1.98345 3.97791 1.98995 3.63469 1.9895 3.29159C1.98912 2.95781 1.98255 2.62384 1.99063 2.29021C2.00425 1.72428 2.52525 1.42938 3.00913 1.72153ZM2.6475 2.26443V2.50118C2.64745 2.61841 2.64745 2.73406 2.64738 2.84843L2.64733 3.07548V3.41089C2.64738 3.66979 2.6475 3.92459 2.64795 4.17939C2.64818 4.29931 2.71058 4.29444 2.79133 4.24443C3.25677 3.95593 3.72243 3.66778 4.1883 3.37989C4.2653 3.33241 4.26748 3.28279 4.19195 3.23514C3.69298 2.92069 3.19335 2.60731 2.6475 2.26443Z" fill="#4A7EBF"/>
</svg>
