<svg width="17" height="16" viewBox="0 0 17 16" fill="none" xmlns="http://www.w3.org/2000/svg">
<g clip-path="url(#clip0_14_647)">
<path fill-rule="evenodd" clip-rule="evenodd" d="M8.47467 0C3.7884 0 0 3.66667 0 8.20283C0 11.8288 2.42736 14.8982 5.79474 15.9845C6.21575 16.0662 6.36997 15.808 6.36997 15.5908C6.36997 15.4007 6.35609 14.7488 6.35609 14.0697C3.99864 14.5587 3.50772 13.0918 3.50772 13.0918C3.12887 12.1412 2.56752 11.8968 2.56752 11.8968C1.79593 11.3943 2.62372 11.3943 2.62372 11.3943C3.47962 11.4487 3.92873 12.2363 3.92873 12.2363C4.68628 13.4857 5.90698 13.1327 6.39807 12.9153C6.46815 12.3857 6.6928 12.019 6.93132 11.8153C5.05108 11.6252 3.07284 10.919 3.07284 7.76817C3.07284 6.87183 3.40937 6.1385 3.94261 5.56817C3.85848 5.3645 3.56375 4.52233 4.02692 3.39517C4.02692 3.39517 4.74248 3.17783 6.35592 4.23717C7.04669 4.05761 7.75907 3.96627 8.47467 3.9655C9.19023 3.9655 9.91967 4.06067 10.5933 4.23717C12.2069 3.17783 12.9224 3.39517 12.9224 3.39517C13.3856 4.52233 13.0907 5.3645 13.0066 5.56817C13.5539 6.1385 13.8765 6.87183 13.8765 7.76817C13.8765 10.919 11.8983 11.6115 10.004 11.8153C10.3128 12.0733 10.5792 12.5622 10.5792 13.3363C10.5792 14.4363 10.5653 15.3192 10.5653 15.5907C10.5653 15.808 10.7197 16.0662 11.1405 15.9847C14.5079 14.898 16.9353 11.8288 16.9353 8.20283C16.9492 3.66667 13.1469 0 8.47467 0Z" fill="#24292F"/>
</g>
<defs>
<clipPath id="clip0_14_647">
<rect width="17" height="16" fill="white"/>
</clipPath>
</defs>
</svg>
