<svg width="20" height="16" viewBox="0 0 20 16" fill="none" xmlns="http://www.w3.org/2000/svg">
<g clip-path="url(#clip0_14_724)">
<path fill-rule="evenodd" clip-rule="evenodd" d="M12.7275 4.422L13.3681 4.43292L15.1087 2.70173L15.1931 1.96828C13.7637 0.69902 11.914 -0.00166788 9.99782 2.98137e-06C6.39159 2.98137e-06 3.34786 2.44042 2.4469 5.7461C2.63692 5.61428 3.04312 5.71316 3.04312 5.71316L6.52125 5.14441C6.52125 5.14441 6.69999 4.8501 6.79059 4.86472C7.61295 3.96609 8.77827 3.45415 9.99992 3.45463C11.0312 3.45678 11.9812 3.81918 12.7275 4.41872V4.42206H12.7275V4.422Z" fill="#EA4335"/>
<path fill-rule="evenodd" clip-rule="evenodd" d="M17.5531 5.74995C17.149 4.26742 16.3162 2.95836 15.1922 1.96533L12.7275 4.41661C13.7151 5.20913 14.3485 6.42188 14.3485 7.77946V8.21209C15.5475 8.21209 16.5216 9.18304 16.5216 10.3734C16.5216 11.5659 15.5453 12.5347 14.3485 12.5347H10.0022L9.5672 12.9699V15.5638L10.0022 15.9943H14.3485C17.4678 15.9899 19.9954 13.4761 20 10.3738C19.9978 8.46081 19.0313 6.76847 17.5532 5.75031V5.75001L17.5531 5.74995Z" fill="#4285F4"/>
<path fill-rule="evenodd" clip-rule="evenodd" d="M5.65159 15.9998H9.99534V12.5376H5.65159C5.34295 12.5376 5.03797 12.4717 4.75723 12.3442L4.13006 12.5354L2.38946 14.2665L2.237 14.8508C3.21788 15.5951 4.41758 15.998 5.65135 15.9974L5.65165 15.9998H5.65159Z" fill="#34A853"/>
<path fill-rule="evenodd" clip-rule="evenodd" d="M5.65157 4.75537C2.53223 4.76283 0.00437999 7.27658 0 10.379C0 12.2044 0.879118 13.8274 2.23938 14.8555L4.75931 12.3492C3.98027 11.9998 3.47909 11.229 3.47837 10.379C3.47837 9.1865 4.45463 8.2177 5.65151 8.2177C6.53273 8.2177 7.29029 8.74605 7.63276 9.49203L10.1528 6.98573C9.11932 5.63281 7.48714 4.75853 5.65187 4.75853L5.65157 4.75537Z" fill="#FBBC05"/>
</g>
<defs>
<clipPath id="clip0_14_724">
<rect width="20" height="16" fill="white"/>
</clipPath>
</defs>
</svg>
