<svg width="15" height="16" viewBox="0 0 15 16" fill="none" xmlns="http://www.w3.org/2000/svg">
<path d="M14.225 6.8625C14.2 6.6 14.15 6.3 14.075 5.9625C14 5.625 13.85 5.275 13.675 4.8875C13.4875 4.5125 13.25 4.1125 12.9375 3.75C12.8125 3.6 12.675 3.4625 12.5375 3.3125C12.7625 2.45 12.275 1.6875 12.275 1.6875C11.4375 1.6375 10.9125 1.95 10.725 2.0875C10.7 2.075 10.65 2.0625 10.625 2.05C10.4875 2 10.3375 1.9375 10.1875 1.8875C10.0375 1.85 9.8875 1.7875 9.7375 1.7625C9.5875 1.725 9.425 1.6875 9.25 1.6625C9.225 1.6625 9.2 1.65 9.1625 1.65C8.8125 0.5 7.7625 0 7.7625 0C6.5625 0.775 6.3375 1.8 6.3375 1.8C6.3375 1.8 6.3375 1.825 6.325 1.85C6.25 1.8625 6.2 1.8875 6.1375 1.9C6.05 1.925 5.9625 1.95 5.875 2L5.6125 2.1125C5.4375 2.2 5.2625 2.275 5.0875 2.375C4.925 2.475 4.7625 2.5625 4.6 2.675C4.575 2.6625 4.5625 2.65 4.5625 2.65C2.95 2.025 1.525 2.775 1.525 2.775C1.4 4.5 2.175 5.5625 2.325 5.7625C2.2875 5.875 2.25 5.975 2.2125 6.075C2.0875 6.4625 2 6.8625 1.95 7.275C1.9375 7.325 1.9375 7.4 1.925 7.45C0.4375 8.1875 0 9.7 0 9.7C1.2375 11.125 2.6875 11.2125 2.6875 11.2125C2.8625 11.5375 3.0875 11.8625 3.325 12.15C3.425 12.275 3.5375 12.3875 3.6375 12.5125C3.1875 13.8 3.7125 14.8875 3.7125 14.8875C5.1 14.9375 6.0125 14.2875 6.2 14.125C6.3375 14.1625 6.475 14.2125 6.6125 14.25C7.0375 14.3625 7.475 14.425 7.9 14.4375H8.4625C9.1125 15.375 10.2625 15.5 10.2625 15.5C11.075 14.6375 11.125 13.8 11.125 13.6V13.525C11.2875 13.4 11.45 13.275 11.625 13.1375C11.95 12.85 12.225 12.5 12.475 12.15C12.5 12.125 12.5125 12.075 12.55 12.05C13.475 12.1 14.1125 11.475 14.1125 11.475C13.9625 10.5125 13.4125 10.05 13.3 9.9625L13.2875 9.95L13.275 9.9375L13.2625 9.925C13.2625 9.875 13.275 9.8125 13.275 9.75C13.2875 9.6375 13.2875 9.5375 13.2875 9.4375V9.025C13.2875 9 13.2875 8.975 13.275 8.9375L13.2625 8.85L13.25 8.7625C13.2375 8.65 13.2125 8.55 13.2 8.45C13.1 8.0375 12.9375 7.6375 12.7375 7.3C12.5125 6.9375 12.25 6.6375 11.95 6.3625C11.65 6.1 11.3125 5.875 10.9625 5.725C10.6 5.5625 10.25 5.4625 9.875 5.425C9.7 5.4 9.5 5.4 9.325 5.4H9.0375C8.9375 5.4125 8.85 5.425 8.7625 5.4375C8.3875 5.5125 8.05 5.65 7.75 5.825C7.45 6 7.1875 6.2375 6.9625 6.5C6.7375 6.7625 6.575 7.0375 6.4625 7.3375C6.35 7.625 6.2875 7.9375 6.275 8.2375V8.5625C6.275 8.6 6.275 8.6375 6.2875 8.675C6.3 8.825 6.325 8.9625 6.375 9.1C6.4625 9.375 6.5875 9.625 6.75 9.8375C6.9125 10.05 7.1 10.225 7.3 10.3625C7.5125 10.5 7.7125 10.6 7.9375 10.6625C8.1625 10.725 8.3625 10.7625 8.5625 10.75H8.85C8.875 10.75 8.9 10.7375 8.925 10.7375C8.95 10.7375 8.9625 10.725 9 10.725C9.0375 10.7125 9.1 10.7 9.1375 10.6875C9.225 10.6625 9.3 10.6125 9.3875 10.5875C9.475 10.55 9.5375 10.5 9.6 10.4625C9.6125 10.45 9.6375 10.4375 9.65 10.425C9.725 10.375 9.7375 10.275 9.675 10.2C9.625 10.15 9.5375 10.125 9.4625 10.1625C9.45 10.175 9.4375 10.175 9.4125 10.1875C9.3625 10.2125 9.2875 10.2375 9.2375 10.2625C9.1625 10.275 9.1 10.3 9.025 10.3125C8.9875 10.3125 8.95 10.325 8.9125 10.325H8.6875H8.6C8.5875 10.325 8.5625 10.325 8.55 10.3125C8.4 10.2875 8.2375 10.2375 8.0875 10.175C7.9375 10.1 7.7875 10.0125 7.6625 9.8875C7.525 9.7625 7.4125 9.625 7.3125 9.4625C7.2125 9.3 7.1625 9.1125 7.1375 8.9375C7.125 8.8375 7.1125 8.75 7.125 8.65V8.5625V8.5C7.125 8.45 7.1375 8.4 7.15 8.35C7.225 7.9375 7.425 7.5375 7.7375 7.2375C7.825 7.15 7.9 7.0875 8 7.025C8.1 6.95 8.1875 6.9 8.2875 6.8625C8.3875 6.825 8.5 6.775 8.6 6.75C8.7125 6.725 8.825 6.7 8.925 6.7C8.975 6.7 9.0375 6.6875 9.0875 6.6875H9.1875H9.2375C9.3625 6.7 9.4875 6.7125 9.6 6.7375C9.8375 6.7875 10.0625 6.875 10.2875 7C10.725 7.25 11.1 7.625 11.325 8.075C11.4375 8.3 11.5125 8.5375 11.5625 8.8C11.575 8.875 11.575 8.925 11.5875 8.9875V9.325C11.5875 9.4 11.575 9.4625 11.575 9.5375C11.5625 9.6125 11.5625 9.675 11.55 9.75C11.5375 9.825 11.525 9.8875 11.5125 9.9625C11.4875 10.1 11.425 10.225 11.3875 10.3625C11.2875 10.625 11.15 10.875 10.9875 11.0875C10.6625 11.5375 10.2 11.9125 9.7 12.15C9.4375 12.2625 9.175 12.3625 8.9 12.4C8.7625 12.425 8.625 12.4375 8.4875 12.4375H8.2875H8.275C8.2 12.4375 8.125 12.4375 8.05 12.425C7.75 12.4 7.4625 12.3375 7.175 12.2625C6.8875 12.175 6.6125 12.075 6.35 11.9375C5.825 11.6625 5.3625 11.2625 4.9875 10.8125C4.8125 10.575 4.6375 10.325 4.5 10.075C4.3625 9.825 4.2625 9.5375 4.1875 9.2625C4.1 8.9875 4.0625 8.7 4.05 8.4125V7.975C4.05 7.8375 4.0625 7.6875 4.0875 7.5375C4.1 7.3875 4.125 7.25 4.1625 7.1C4.1875 6.95 4.2375 6.8125 4.275 6.6625C4.3625 6.375 4.45 6.1 4.575 5.8375C4.825 5.3125 5.1375 4.85 5.5125 4.475C5.6125 4.375 5.7 4.3 5.8125 4.2125C5.85 4.175 5.95 4.0875 6.0625 4.025C6.175 3.9625 6.2875 3.8875 6.4125 3.8375C6.4625 3.8125 6.525 3.7875 6.5875 3.75C6.6125 3.7375 6.6375 3.725 6.6875 3.7125C6.7125 3.7 6.7375 3.6875 6.7875 3.675C6.9125 3.625 7.0375 3.575 7.1625 3.5375C7.1875 3.525 7.2375 3.525 7.2625 3.5125C7.2875 3.5 7.3375 3.5 7.3625 3.4875C7.4375 3.475 7.4875 3.4625 7.55 3.4375C7.575 3.425 7.625 3.425 7.65 3.4125C7.675 3.4125 7.725 3.4 7.75 3.4C7.775 3.4 7.825 3.3875 7.85 3.3875L7.9 3.375L7.95 3.3625C7.975 3.3625 8.025 3.35 8.05 3.35C8.0875 3.35 8.125 3.3375 8.1625 3.3375C8.1875 3.3375 8.25 3.325 8.275 3.325C8.3 3.325 8.3125 3.325 8.35 3.3125H8.4375C8.475 3.3125 8.5125 3.3125 8.55 3.3H8.6H9.1125C9.3625 3.3125 9.6125 3.3375 9.8375 3.3875C10.3 3.475 10.7625 3.625 11.1625 3.825C11.5625 4.0125 11.9375 4.2625 12.2375 4.525C12.25 4.5375 12.275 4.55 12.2875 4.575C12.3 4.5875 12.325 4.6 12.3375 4.625C12.375 4.65 12.4125 4.7 12.45 4.725C12.4875 4.75 12.525 4.8 12.5625 4.825C12.5875 4.8625 12.6375 4.9 12.6625 4.9375C12.8 5.075 12.925 5.225 13.0375 5.3625C13.2625 5.65 13.4375 5.9375 13.575 6.2125C13.5875 6.225 13.5875 6.2375 13.6 6.2625C13.6125 6.275 13.6125 6.2875 13.625 6.3125C13.6375 6.3375 13.65 6.3875 13.675 6.4125C13.6875 6.4375 13.7 6.4875 13.7125 6.5125C13.725 6.5375 13.7375 6.5875 13.75 6.6125C13.8 6.7375 13.85 6.8625 13.8875 6.9875C13.9625 7.175 14 7.35 14.0375 7.4875C14.05 7.5375 14.1125 7.5875 14.1625 7.5875C14.2375 7.5875 14.275 7.5375 14.275 7.4625C14.2375 7.25 14.2375 7.075 14.225 6.8625Z" fill="url(#paint0_linear_14_673)"/>
<defs>
<linearGradient id="paint0_linear_14_673" x1="7.1249" y1="18.9948" x2="7.1249" y2="4.84931" gradientUnits="userSpaceOnUse">
<stop stop-color="#FCEE1F"/>
<stop offset="1" stop-color="#F15B2A"/>
</linearGradient>
</defs>
</svg>
