<svg width="16" height="16" viewBox="0 0 16 16" fill="none" xmlns="http://www.w3.org/2000/svg">
<g clip-path="url(#clip0_14_682)">
<path d="M7.95751 0.30957C12.1421 0.310445 15.5771 3.72157 15.5718 7.87207C15.5664 12.0849 12.1455 15.4492 7.87013 15.4462C3.69001 15.4433 0.310509 12.0283 0.313509 7.81045C0.316259 3.68595 3.75826 0.308695 7.95751 0.30957ZM5.64451 2.96582C5.74026 3.43795 5.64751 3.87832 5.50538 4.31145C5.40726 4.61132 5.27151 4.90032 5.19038 5.20457C5.05663 5.70557 4.90538 6.20945 4.84963 6.72157C4.76963 7.45845 5.05913 8.10732 5.55463 8.75282L3.27688 8.27345C3.28076 8.3452 3.27688 8.37245 3.28463 8.39545C3.50051 9.0297 3.88038 9.56395 4.30613 10.0678C4.35113 10.1211 4.45363 10.1483 4.52988 10.1483C6.80076 10.1528 9.07176 10.1523 11.3428 10.1493C11.4131 10.1493 11.5074 10.1362 11.5503 10.0908C12.0371 9.57907 12.4091 8.99607 12.6421 8.26207L10.2309 8.73432C10.3901 8.42232 10.5713 8.14832 10.6759 7.84707C11.0328 6.81682 10.8848 5.82082 10.3725 4.88132C9.96138 4.12745 9.58201 3.37695 9.78713 2.4682C9.35301 2.89745 9.18601 3.4432 9.08013 4.0057C8.97613 4.55995 8.91451 5.12195 8.83388 5.68445C8.82226 5.66745 8.80763 5.6547 8.80513 5.64007C8.79495 5.58124 8.78794 5.5219 8.78413 5.46232C8.73489 4.54145 8.55513 3.6542 8.17538 2.80657C7.95213 2.30807 7.70563 1.79782 7.93601 1.20257C7.78026 1.28507 7.63913 1.3667 7.53813 1.48332C7.23688 1.83145 7.11226 2.24957 7.08013 2.70745C7.05263 3.0987 7.01513 3.4917 6.94238 3.87645C6.86613 4.2807 6.74563 4.6767 6.47363 5.04832C6.36426 4.25482 6.35201 3.46957 5.64451 2.96582ZM11.5 10.8437H4.37701V12.0809H11.5V10.8437ZM5.78951 12.7207C5.78376 13.7509 6.83301 14.5184 8.12988 14.4628C9.20513 14.4164 10.1563 13.5707 10.0748 12.7207H5.78951Z" fill="#E75225"/>
</g>
<defs>
<clipPath id="clip0_14_682">
<rect width="16" height="16" fill="white"/>
</clipPath>
</defs>
</svg>
