<svg width="18" height="16" viewBox="0 0 18 16" fill="none" xmlns="http://www.w3.org/2000/svg">
<path fill-rule="evenodd" clip-rule="evenodd" d="M9.03043 0C4.06117 0 0 4.00329 0 8.96334C0 11.4308 1.00899 13.8227 2.82516 15.5096C3.45578 16.1139 4.43954 16.1642 5.14583 15.6355C7.41605 13.9486 10.5439 13.9486 12.8141 15.6355C13.5204 16.1642 14.5042 16.1139 15.1348 15.5096C18.7419 12.0854 18.8933 6.3952 15.4627 2.79475C13.7979 1.0323 11.452 0.0251779 9.03043 0ZM8.97998 13.4702C6.55842 13.5457 4.54044 11.6322 4.48999 9.2403C4.48999 9.16477 4.48999 9.08923 4.48999 9.0137C4.48999 6.54626 6.50797 4.53203 8.97998 4.53203C11.452 4.53203 13.47 6.54626 13.47 9.0137C13.5457 11.4308 11.6286 13.4198 9.23223 13.4954C9.13133 13.4702 9.05566 13.4702 8.97998 13.4702Z" fill="#62D84E"/>
</svg>
