<svg width="210" height="40" viewBox="0 0 210 40" fill="none" xmlns="http://www.w3.org/2000/svg">
<g clip-path="url(#clip0_1_2078)">
<path fill-rule="evenodd" clip-rule="evenodd" d="M74.0671 10.8703C74.2963 12.0479 73.5169 13.1863 72.327 13.4128C71.1372 13.6393 69.9858 12.869 69.7567 11.6914C69.5275 10.5138 70.3067 9.37541 71.4967 9.14889C72.6866 8.92238 73.8378 9.69267 74.0671 10.8703ZM80.4528 10.2858V16.6193V22.9527L80.4536 22.9535C80.4536 23.7412 80.9768 24.0933 81.5227 24.0933C81.8575 24.0933 82.1297 24.0106 82.3399 23.8856V26.3939C81.9623 26.643 81.292 26.7882 80.6422 26.7882C78.5041 26.7882 77.4561 25.3167 77.4561 23.4086V10.2858H80.4528ZM45.7435 10.7214L38.3242 26.4571H41.7197L42.8936 23.6585H48.9717L50.1456 26.4571H53.5623L46.1212 10.7214H45.7435ZM43.8987 21.1908L45.9321 16.3394L47.9441 21.1908H43.8987ZM73.4099 15.0957H70.4131V26.4571H73.4099V15.0957ZM89.3393 23.5335L86.384 15.0957H83.2817L87.9763 27.1201C87.4938 27.9702 86.6977 28.3426 85.8172 28.3426C85.125 28.3426 84.4758 28.1771 84.1193 27.8868V30.3951C84.5173 30.7066 85.3557 30.9135 86.1737 30.9135C87.8082 30.9135 89.5904 29.9807 90.5328 27.6173L95.6262 15.0957H92.5036L89.3393 23.5335ZM98.7228 11.8613H101.699V15.0957H104.55V17.6245H101.699V22.4553C101.699 23.4711 102.265 24.0723 103.292 24.0723C103.69 24.0723 104.277 23.9896 104.55 23.8232V26.4767C104.193 26.6634 103.502 26.7876 102.873 26.7876C100.295 26.7876 98.7228 25.191 98.7228 22.4961V17.6237H96.8991V15.095H98.7228V11.8613ZM110.213 15.0957H107.216V26.4571H110.213V15.0957ZM121.974 17.8742C121.555 17.6876 120.737 17.3972 119.668 17.3972C117.32 17.3972 115.853 18.8275 115.853 20.7769C115.853 22.7262 117.32 24.1979 119.668 24.1979C120.738 24.1979 121.555 23.9074 121.974 23.6999L122.016 26.27C121.409 26.5807 120.402 26.7882 119.46 26.7882C115.56 26.7882 112.941 24.0933 112.941 20.7761C112.941 17.4589 115.582 14.785 119.48 14.785C120.402 14.785 121.408 14.9926 122.016 15.3034L121.974 17.8735V17.8742ZM130.211 19.8432L128.911 19.3037C128.115 18.9923 127.842 18.7643 127.842 18.288C127.842 17.6862 128.556 17.231 129.751 17.231C130.798 17.231 131.637 17.5214 132.245 17.8532V15.3244C131.742 15.0551 130.673 14.785 129.625 14.785C126.649 14.785 124.825 16.3401 124.825 18.2474C124.825 19.719 125.768 20.6113 127.445 21.2741L128.807 21.8339C129.729 22.2072 130.107 22.5599 130.107 23.1401C130.107 23.7201 129.52 24.3422 127.989 24.3422C126.711 24.3422 125.474 23.9068 124.825 23.4102V25.9185C125.454 26.3955 126.669 26.789 128.137 26.789C131.385 26.789 132.978 24.9644 132.978 23.1605C132.978 21.5434 132.119 20.6106 130.212 19.8432H130.211ZM109.096 13.4208C110.29 13.2124 111.087 12.0871 110.877 10.9059C110.666 9.72461 109.528 8.93616 108.335 9.14453C107.141 9.35289 106.343 10.4782 106.553 11.6595C106.764 12.8407 107.903 13.6292 109.096 13.4208ZM57.8377 15.5364C58.8377 14.8859 60.0326 14.5055 61.3192 14.5055L61.32 14.5062C64.8211 14.5062 67.6593 17.3137 67.6593 20.7769C67.6593 24.2401 64.8211 27.0474 61.32 27.0474C59.2548 27.0474 57.4201 26.0702 56.2621 24.5573L56.1101 24.3482L56.0839 24.3117C55.4341 23.3723 55.0359 22.2486 54.9865 21.0367C54.9742 20.8618 54.966 20.686 54.966 20.5068V10.2858H57.837V15.5364H57.8377ZM58.0787 20.7769C58.0787 22.5468 59.5291 23.9814 61.3186 23.9814C63.108 23.9814 64.5583 22.5468 64.5583 20.7769C64.5583 19.0068 63.108 17.5722 61.3186 17.5722C59.5291 17.5722 58.0787 19.0068 58.0787 20.7769Z" fill="white"/>
<path fill-rule="evenodd" clip-rule="evenodd" d="M35.1365 2.86327L43.3692 2.26883C43.4787 2.26438 43.5087 2.41661 43.4045 2.45327L34.7911 5.32432C34.645 5.35653 32.2044 5.92099 32.3362 9.3198C32.4611 12.5408 31.8958 20.7562 23.8656 26.3305C21.5621 27.9295 20.0669 30.4493 19.7514 33.2259C19.5754 34.7739 19.8034 37.4937 20.0889 39.8093C20.1112 39.9913 19.8654 40.0747 19.7724 39.9158C18.5925 37.918 15.1359 30.7982 15.5432 21.8406C15.5654 21.3396 15.1547 20.9218 14.6511 20.9329C12.0899 20.9861 5.05042 20.6396 0.489157 16.3341C0.481408 16.3263 0.468127 16.3152 0.451524 16.3008C0.253401 16.1285 -0.463828 15.5052 0.463699 15.3897L13.4712 13.723C14.6024 13.5819 16.1697 13.3441 16.9721 12.5364C17.4603 12.0453 17.5333 11.8175 17.7934 10.962C18.8239 7.57428 21.2058 0.406648 28.6525 0.00332128C28.6525 0.00332128 31.4276 -0.191119 33.9555 2.39549C34.2643 2.71216 34.6937 2.88105 35.1365 2.85881L35.1353 2.86103L35.1365 2.86327ZM8.24917 12.7764C7.54303 12.8653 6.83907 12.5364 6.42624 11.9242L2.47814 6.08984C2.3254 5.86321 2.54566 5.57875 2.78917 5.68651L15.4137 11.2775C15.7026 11.4064 15.6506 11.8442 15.3429 11.882L8.24917 12.7764Z" fill="url(#paint0_linear_1_2078)"/>
<path fill-rule="evenodd" clip-rule="evenodd" d="M186.266 16.0522C185.328 15.4374 184.206 15.0779 182.999 15.0779L182.998 15.0786C179.714 15.0786 177.051 17.732 177.051 21.0051C177.051 24.278 179.714 26.9314 182.998 26.9314C184.936 26.9314 186.658 26.0079 187.744 24.578L187.887 24.3803L187.911 24.3459C188.521 23.4582 188.895 22.396 188.941 21.2506C188.953 21.0853 188.96 20.9192 188.96 20.7498V11.0898H186.266V16.0522H186.266ZM186.04 21.0051C186.04 22.678 184.679 24.0338 183 24.0338C181.321 24.0338 179.96 22.678 179.96 21.0051C179.96 19.3321 181.321 17.9763 183 17.9763C184.679 17.9763 186.04 19.3321 186.04 21.0051Z" fill="white"/>
<path d="M146.202 26.8399C144.171 26.8399 142.163 26.23 141.027 25.337V22.331C142.206 23.3548 144.062 24.0954 145.962 24.0954C147.425 24.0954 148.713 23.3984 148.713 22.2439C148.713 20.937 147.512 20.5449 145.525 19.8914C143.102 19.1073 141.071 18.236 141.071 15.3172C141.071 12.6597 143.123 10.9825 146.333 10.9825C148.254 10.9825 149.761 11.4182 150.874 12.1152V15.0558C149.695 14.2716 147.927 13.7271 146.442 13.7271C144.826 13.7271 144.106 14.4241 144.106 15.2736C144.106 16.4281 145.307 16.7766 147.468 17.4518C149.87 18.2142 151.748 19.3904 151.748 22.135C151.748 25.0756 149.411 26.8399 146.202 26.8399ZM159.139 26.8182C157.327 26.8182 155.908 25.7508 155.908 23.4637V18.1053H154.074V15.6657H155.908V12.6815H158.79V15.6657H161.475V18.1053H158.79V22.636C158.79 23.7469 159.183 24.1825 160.1 24.1825C160.624 24.1825 161.038 24.0518 161.431 23.8558V26.3172C160.864 26.6439 160.012 26.8182 159.139 26.8182ZM164.719 22.9192V15.6657H167.601V22.2221C167.601 23.7687 168.54 24.1172 169.348 24.1172C170.199 24.1172 170.985 23.6597 171.444 22.9627V15.6657H174.326V26.535H171.444V25.3152C170.854 26.034 169.697 26.8182 168.169 26.8182C165.92 26.8182 164.719 25.3152 164.719 22.9192ZM192.186 26.535V15.6657H195.068V26.535H192.186ZM191.815 12.3548C191.815 11.3528 192.623 10.5469 193.627 10.5469C194.632 10.5469 195.44 11.3528 195.44 12.3548C195.44 13.3568 194.632 14.1627 193.627 14.1627C192.623 14.1627 191.815 13.3568 191.815 12.3548ZM203.904 15.3825C207.157 15.3825 209.297 17.8439 209.297 21.1112C209.297 24.3786 207.157 26.8182 203.904 26.8182C200.629 26.8182 198.511 24.3786 198.511 21.1112C198.511 17.8439 200.629 15.3825 203.904 15.3825ZM203.904 17.9528C202.332 17.9528 201.35 19.2597 201.35 21.1112C201.35 22.9409 202.332 24.2479 203.904 24.2479C205.454 24.2479 206.459 22.9409 206.459 21.1112C206.459 19.2597 205.454 17.9528 203.904 17.9528Z" fill="white"/>
</g>
<defs>
<linearGradient id="paint0_linear_1_2078" x1="6.55019" y1="26.3028" x2="42.9899" y2="-0.624039" gradientUnits="userSpaceOnUse">
<stop offset="0.03" stop-color="#007CD8"/>
<stop offset="0.52" stop-color="#00B15C"/>
<stop offset="0.94" stop-color="#FFD600"/>
</linearGradient>
<clipPath id="clip0_1_2078">
<rect width="210" height="40" fill="white"/>
</clipPath>
</defs>
</svg>
