<svg width="210" height="40" viewBox="0 0 210 40" fill="none" xmlns="http://www.w3.org/2000/svg">
<g clip-path="url(#clip0_1_1620)">
<path fill-rule="evenodd" clip-rule="evenodd" d="M74.0671 10.8698C74.2963 12.0474 73.5169 13.1858 72.327 13.4124C71.1372 13.6389 69.9858 12.8686 69.7567 11.691C69.5275 10.5133 70.3067 9.37495 71.4967 9.14844C72.6866 8.92192 73.8378 9.69222 74.0671 10.8698ZM80.4528 10.2854V16.6188V22.9523L80.4536 22.9531C80.4536 23.7408 80.9768 24.0929 81.5227 24.0929C81.8575 24.0929 82.1297 24.0101 82.3399 23.8851V26.3935C81.9623 26.6426 81.292 26.7877 80.6422 26.7877C78.5041 26.7877 77.4561 25.3162 77.4561 23.4081V10.2854H80.4528ZM45.7435 10.721L38.3242 26.4566H41.7197L42.8936 23.658H48.9717L50.1456 26.4566H53.5623L46.1212 10.721H45.7435ZM43.8987 21.1903L45.9321 16.339L47.9441 21.1903H43.8987ZM73.4099 15.0953H70.4131V26.4566H73.4099V15.0953ZM89.3393 23.5331L86.384 15.0953H83.2817L87.9763 27.1196C87.4938 27.9697 86.6977 28.3422 85.8172 28.3422C85.125 28.3422 84.4758 28.1766 84.1193 27.8863V30.3947C84.5173 30.7061 85.3557 30.9131 86.1737 30.9131C87.8082 30.9131 89.5904 29.9802 90.5328 27.6168L95.6262 15.0953H92.5036L89.3393 23.5331ZM98.7228 11.8609H101.699V15.0953H104.55V17.624H101.699V22.4549C101.699 23.4707 102.265 24.0719 103.292 24.0719C103.69 24.0719 104.277 23.9891 104.55 23.8228V26.4762C104.193 26.663 103.502 26.7871 102.873 26.7871C100.295 26.7871 98.7228 25.1905 98.7228 22.4956V17.6233H96.8991V15.0946H98.7228V11.8609ZM110.213 15.0953H107.216V26.4566H110.213V15.0953ZM121.974 17.8738C121.555 17.6872 120.737 17.3968 119.668 17.3968C117.32 17.3968 115.853 18.827 115.853 20.7764C115.853 22.7257 117.32 24.1974 119.668 24.1974C120.738 24.1974 121.555 23.9069 121.974 23.6994L122.016 26.2695C121.409 26.5802 120.402 26.7877 119.46 26.7877C115.56 26.7877 112.941 24.0929 112.941 20.7756C112.941 17.4585 115.582 14.7845 119.48 14.7845C120.402 14.7845 121.408 14.9922 122.016 15.3029L121.974 17.873V17.8738ZM130.211 19.8428L128.911 19.3033C128.115 18.9918 127.842 18.7639 127.842 18.2876C127.842 17.6857 128.556 17.2305 129.751 17.2305C130.798 17.2305 131.637 17.5209 132.245 17.8527V15.324C131.742 15.0546 130.673 14.7845 129.625 14.7845C126.649 14.7845 124.825 16.3397 124.825 18.2469C124.825 19.7186 125.768 20.6109 127.445 21.2737L128.807 21.8335C129.729 22.2067 130.107 22.5594 130.107 23.1396C130.107 23.7196 129.52 24.3418 127.989 24.3418C126.711 24.3418 125.474 23.9063 124.825 23.4097V25.918C125.454 26.395 126.669 26.7885 128.137 26.7885C131.385 26.7885 132.978 24.964 132.978 23.16C132.978 21.543 132.119 20.6101 130.212 19.8428H130.211ZM109.096 13.4203C110.29 13.212 111.087 12.0866 110.877 10.9054C110.666 9.72416 109.528 8.9357 108.335 9.14408C107.141 9.35244 106.343 10.4778 106.553 11.659C106.764 12.8403 107.903 13.6287 109.096 13.4203ZM57.8377 15.536C58.8377 14.8854 60.0326 14.505 61.3192 14.505L61.32 14.5057C64.8211 14.5057 67.6593 17.3133 67.6593 20.7764C67.6593 24.2396 64.8211 27.0469 61.32 27.0469C59.2548 27.0469 57.4201 26.0697 56.2621 24.5568L56.1101 24.3477L56.0839 24.3113C55.4341 23.3719 55.0359 22.2481 54.9865 21.0362C54.9742 20.8614 54.966 20.6855 54.966 20.5063V10.2854H57.837V15.536H57.8377ZM58.0787 20.7764C58.0787 22.5463 59.5291 23.981 61.3186 23.981C63.108 23.981 64.5583 22.5463 64.5583 20.7764C64.5583 19.0064 63.108 17.5717 61.3186 17.5717C59.5291 17.5717 58.0787 19.0064 58.0787 20.7764Z" fill="#021A5A"/>
<path fill-rule="evenodd" clip-rule="evenodd" d="M35.1365 2.86327L43.3692 2.26883C43.4787 2.26438 43.5087 2.41661 43.4045 2.45327L34.7911 5.32432C34.645 5.35653 32.2044 5.92099 32.3362 9.3198C32.4611 12.5408 31.8958 20.7562 23.8656 26.3305C21.5621 27.9295 20.0669 30.4493 19.7514 33.2259C19.5754 34.7739 19.8034 37.4937 20.0889 39.8093C20.1112 39.9913 19.8654 40.0747 19.7724 39.9158C18.5925 37.918 15.1359 30.7982 15.5432 21.8406C15.5654 21.3396 15.1547 20.9218 14.6511 20.9329C12.0899 20.9861 5.05042 20.6396 0.489157 16.3341C0.481408 16.3263 0.468127 16.3152 0.451524 16.3008C0.253401 16.1285 -0.463828 15.5052 0.463699 15.3897L13.4712 13.723C14.6024 13.5819 16.1697 13.3441 16.9721 12.5364C17.4603 12.0453 17.5333 11.8175 17.7934 10.962C18.8239 7.57428 21.2058 0.406648 28.6525 0.00332128C28.6525 0.00332128 31.4276 -0.191119 33.9555 2.39549C34.2643 2.71216 34.6937 2.88105 35.1365 2.85881L35.1353 2.86103L35.1365 2.86327ZM8.24917 12.7764C7.54303 12.8653 6.83907 12.5364 6.42624 11.9242L2.47814 6.08984C2.3254 5.86321 2.54566 5.57875 2.78917 5.68651L15.4137 11.2775C15.7026 11.4064 15.6506 11.8442 15.3429 11.882L8.24917 12.7764Z" fill="url(#paint0_linear_1_1620)"/>
<path fill-rule="evenodd" clip-rule="evenodd" d="M186.266 16.0515C185.328 15.4367 184.207 15.0771 183 15.0771L182.999 15.0778C179.714 15.0778 177.051 17.7312 177.051 21.0044C177.051 24.2772 179.714 26.9307 182.999 26.9307C184.937 26.9307 186.658 26.0071 187.744 24.5772L187.887 24.3796L187.912 24.3451C188.521 23.4574 188.895 22.3952 188.941 21.2499C188.953 21.0846 188.961 20.9184 188.961 20.7491V11.0891H186.267V16.0515H186.266ZM186.04 21.0044C186.04 22.6772 184.679 24.0331 183 24.0331C181.322 24.0331 179.961 22.6772 179.961 21.0044C179.961 19.3314 181.322 17.9755 183 17.9755C184.679 17.9755 186.04 19.3314 186.04 21.0044Z" fill="#021A5A"/>
<path d="M146.202 26.8396C144.171 26.8396 142.163 26.2297 141.027 25.3366V22.3307C142.206 23.3545 144.062 24.0951 145.962 24.0951C147.425 24.0951 148.713 23.398 148.713 22.2436C148.713 20.9366 147.512 20.5446 145.525 19.8911C143.102 19.1069 141.071 18.2356 141.071 15.3168C141.071 12.6594 143.123 10.9822 146.333 10.9822C148.254 10.9822 149.761 11.4178 150.874 12.1149V15.0554C149.695 14.2713 147.927 13.7267 146.442 13.7267C144.826 13.7267 144.106 14.4238 144.106 15.2733C144.106 16.4277 145.307 16.7762 147.468 17.4515C149.87 18.2139 151.748 19.3901 151.748 22.1347C151.748 25.0752 149.411 26.8396 146.202 26.8396ZM159.139 26.8178C157.327 26.8178 155.908 25.7505 155.908 23.4634V18.105H154.074V15.6653H155.908V12.6812H158.79V15.6653H161.475V18.105H158.79V22.6356C158.79 23.7465 159.183 24.1822 160.1 24.1822C160.624 24.1822 161.038 24.0515 161.431 23.8554V26.3168C160.864 26.6436 160.012 26.8178 159.139 26.8178ZM164.719 22.9188V15.6653H167.601V22.2218C167.601 23.7683 168.54 24.1168 169.348 24.1168C170.199 24.1168 170.985 23.6594 171.444 22.9624V15.6653H174.326V26.5347H171.444V25.3149C170.854 26.0337 169.697 26.8178 168.169 26.8178C165.92 26.8178 164.719 25.3149 164.719 22.9188ZM192.186 26.5347V15.6653H195.068V26.5347H192.186ZM191.815 12.3545C191.815 11.3525 192.623 10.5465 193.627 10.5465C194.632 10.5465 195.44 11.3525 195.44 12.3545C195.44 13.3564 194.632 14.1624 193.627 14.1624C192.623 14.1624 191.815 13.3564 191.815 12.3545ZM203.904 15.3822C207.157 15.3822 209.297 17.8436 209.297 21.1109C209.297 24.3782 207.157 26.8178 203.904 26.8178C200.629 26.8178 198.511 24.3782 198.511 21.1109C198.511 17.8436 200.629 15.3822 203.904 15.3822ZM203.904 17.9525C202.332 17.9525 201.35 19.2594 201.35 21.1109C201.35 22.9406 202.332 24.2475 203.904 24.2475C205.454 24.2475 206.459 22.9406 206.459 21.1109C206.459 19.2594 205.454 17.9525 203.904 17.9525Z" fill="#021A5A"/>
</g>
<defs>
<linearGradient id="paint0_linear_1_1620" x1="6.55019" y1="26.3028" x2="42.9899" y2="-0.624039" gradientUnits="userSpaceOnUse">
<stop offset="0.03" stop-color="#007CD8"/>
<stop offset="0.52" stop-color="#00B15C"/>
<stop offset="0.94" stop-color="#FFD600"/>
</linearGradient>
<clipPath id="clip0_1_1620">
<rect width="210" height="40" fill="white"/>
</clipPath>
</defs>
</svg>
