<svg width="16" height="16" viewBox="0 0 16 16" fill="none" xmlns="http://www.w3.org/2000/svg">
<path d="M4.16669 2.3335C4.03408 2.3335 3.9069 2.38617 3.81313 2.47994C3.71937 2.57371 3.66669 2.70089 3.66669 2.8335V13.6668H5.00002V11.8335C5.00002 11.3735 5.37335 11.0002 5.83335 11.0002H10.1667C10.6267 11.0002 11 11.3735 11 11.8335V13.6668H12.3334V7.8335C12.3334 7.70089 12.2807 7.57371 12.1869 7.47994C12.0931 7.38617 11.966 7.3335 11.8334 7.3335H10.5C10.3674 7.3335 10.2402 7.28082 10.1465 7.18705C10.0527 7.09328 10 6.9661 10 6.8335V2.8335C10 2.70089 9.94734 2.57371 9.85357 2.47994C9.75981 2.38617 9.63263 2.3335 9.50002 2.3335H4.16669ZM6.00002 12.0002V13.6668H7.50002V12.0002H6.00002ZM8.50002 12.0002V13.6668H10V12.0002H8.50002ZM12.8334 14.6668H3.16669C3.03408 14.6668 2.9069 14.6142 2.81313 14.5204C2.71937 14.4266 2.66669 14.2994 2.66669 14.1668V2.8335C2.66669 2.43567 2.82472 2.05414 3.10603 1.77284C3.38733 1.49153 3.76886 1.3335 4.16669 1.3335H9.50002C9.89785 1.3335 10.2794 1.49153 10.5607 1.77284C10.842 2.05414 11 2.43567 11 2.8335V6.3335H11.8334C12.0303 6.3335 12.2254 6.37229 12.4074 6.44768C12.5894 6.52306 12.7547 6.63355 12.894 6.77284C13.0333 6.91212 13.1438 7.07748 13.2192 7.25947C13.2946 7.44146 13.3334 7.63651 13.3334 7.8335V14.1668C13.3334 14.2994 13.2807 14.4266 13.1869 14.5204C13.0931 14.6142 12.966 14.6668 12.8334 14.6668ZM5.00002 4.3335C5.00002 4.15668 5.07026 3.98712 5.19528 3.86209C5.32031 3.73707 5.48988 3.66683 5.66669 3.66683C5.8435 3.66683 6.01307 3.73707 6.13809 3.86209C6.26312 3.98712 6.33335 4.15668 6.33335 4.3335C6.33335 4.51031 6.26312 4.67988 6.13809 4.8049C6.01307 4.92992 5.8435 5.00016 5.66669 5.00016C5.48988 5.00016 5.32031 4.92992 5.19528 4.8049C5.07026 4.67988 5.00002 4.51031 5.00002 4.3335ZM5.66669 8.3335C5.48988 8.3335 5.32031 8.40373 5.19528 8.52876C5.07026 8.65378 5.00002 8.82335 5.00002 9.00016C5.00002 9.17697 5.07026 9.34654 5.19528 9.47157C5.32031 9.59659 5.48988 9.66683 5.66669 9.66683C5.8435 9.66683 6.01307 9.59659 6.13809 9.47157C6.26312 9.34654 6.33335 9.17697 6.33335 9.00016C6.33335 8.82335 6.26312 8.65378 6.13809 8.52876C6.01307 8.40373 5.8435 8.3335 5.66669 8.3335ZM5.66669 6.00016C5.48988 6.00016 5.32031 6.0704 5.19528 6.19542C5.07026 6.32045 5.00002 6.49002 5.00002 6.66683C5.00002 6.84364 5.07026 7.01321 5.19528 7.13823C5.32031 7.26326 5.48988 7.3335 5.66669 7.3335C5.8435 7.3335 6.01307 7.26326 6.13809 7.13823C6.26312 7.01321 6.33335 6.84364 6.33335 6.66683C6.33335 6.49002 6.26312 6.32045 6.13809 6.19542C6.01307 6.0704 5.8435 6.00016 5.66669 6.00016ZM8.00002 3.66683C7.82321 3.66683 7.65364 3.73707 7.52862 3.86209C7.40359 3.98712 7.33335 4.15668 7.33335 4.3335C7.33335 4.51031 7.40359 4.67988 7.52862 4.8049C7.65364 4.92992 7.82321 5.00016 8.00002 5.00016C8.17683 5.00016 8.3464 4.92992 8.47142 4.8049C8.59645 4.67988 8.66669 4.51031 8.66669 4.3335C8.66669 4.15668 8.59645 3.98712 8.47142 3.86209C8.3464 3.73707 8.17683 3.66683 8.00002 3.66683ZM8.00002 8.3335C7.82321 8.3335 7.65364 8.40373 7.52862 8.52876C7.40359 8.65378 7.33335 8.82335 7.33335 9.00016C7.33335 9.17697 7.40359 9.34654 7.52862 9.47157C7.65364 9.59659 7.82321 9.66683 8.00002 9.66683C8.17683 9.66683 8.3464 9.59659 8.47142 9.47157C8.59645 9.34654 8.66669 9.17697 8.66669 9.00016C8.66669 8.82335 8.59645 8.65378 8.47142 8.52876C8.3464 8.40373 8.17683 8.3335 8.00002 8.3335ZM10.3334 8.3335C10.1565 8.3335 9.98697 8.40373 9.86195 8.52876C9.73693 8.65378 9.66669 8.82335 9.66669 9.00016C9.66669 9.17697 9.73693 9.34654 9.86195 9.47157C9.98697 9.59659 10.1565 9.66683 10.3334 9.66683C10.5102 9.66683 10.6797 9.59659 10.8048 9.47157C10.9298 9.34654 11 9.17697 11 9.00016C11 8.82335 10.9298 8.65378 10.8048 8.52876C10.6797 8.40373 10.5102 8.3335 10.3334 8.3335ZM8.00002 6.00016C7.82321 6.00016 7.65364 6.0704 7.52862 6.19542C7.40359 6.32045 7.33335 6.49002 7.33335 6.66683C7.33335 6.84364 7.40359 7.01321 7.52862 7.13823C7.65364 7.26326 7.82321 7.3335 8.00002 7.3335C8.17683 7.3335 8.3464 7.26326 8.47142 7.13823C8.59645 7.01321 8.66669 6.84364 8.66669 6.66683C8.66669 6.49002 8.59645 6.32045 8.47142 6.19542C8.3464 6.0704 8.17683 6.00016 8.00002 6.00016Z" fill="#0F4C81"/>
</svg>
