<svg width="1042" height="132" viewBox="0 0 1042 132" fill="none" xmlns="http://www.w3.org/2000/svg">
<path fill-rule="evenodd" clip-rule="evenodd" d="M866.426 61.06C861.699 57.9552 856.051 56.1395 849.969 56.1395L849.966 56.1429C833.416 56.1429 820 69.5427 820 86.0715C820 102.6 833.416 116 849.966 116C859.728 116 868.4 111.336 873.873 104.115L874.592 103.117L874.716 102.943C877.788 98.4594 879.67 93.0953 879.904 87.312C879.962 86.4769 880 85.6383 880 84.7824V36H866.429V61.06H866.426ZM865.287 86.0715C865.287 94.5195 858.431 101.367 849.972 101.367C841.514 101.367 834.658 94.5195 834.658 86.0715C834.658 77.6234 841.514 70.7763 849.972 70.7763C858.431 70.7763 865.287 77.6234 865.287 86.0715Z" fill="white"/>
<path fill-rule="evenodd" clip-rule="evenodd" d="M1028.42 81.8396L1022.05 79.1883C1018.14 77.6574 1016.81 76.5369 1016.81 74.1961C1016.81 71.2379 1020.3 69.0005 1026.17 69.0005C1031.3 69.0005 1035.42 70.4278 1038.4 72.0586V59.6298C1035.93 58.306 1030.69 56.9785 1025.55 56.9785C1010.95 56.9785 1002 64.622 1002 73.9962C1002 81.2294 1006.63 85.615 1014.86 88.8729L1021.54 91.6242C1026.06 93.4583 1027.91 95.1926 1027.91 98.0437C1027.91 100.895 1025.03 103.953 1017.53 103.953C1011.25 103.953 1005.19 101.812 1002 99.3712V111.7C1005.09 114.044 1011.05 115.979 1018.25 115.979C1034.18 115.979 1042 107.011 1042 98.1436C1042 90.1968 1037.78 85.6114 1028.43 81.8396H1028.42Z" fill="white"/>
<g clip-path="url(#clip0_3550_6999)">
<path fill-rule="evenodd" clip-rule="evenodd" d="M286.158 30.7793C287.313 36.7263 283.386 42.4752 277.391 43.6191C271.397 44.763 265.596 40.873 264.442 34.926C263.287 28.9791 267.213 23.2302 273.208 22.0863C279.203 20.9424 285.003 24.8324 286.158 30.7793ZM318.33 27.8279V59.8118V91.7957L318.334 91.7994C318.334 95.7774 320.97 97.5556 323.72 97.5556C325.407 97.5556 326.778 97.1377 327.837 96.507V109.174C325.935 110.432 322.558 111.165 319.284 111.165C308.512 111.165 303.232 103.734 303.232 94.0982V27.8279H318.33ZM143.461 30.0277L106.082 109.493H123.189L129.103 95.3595H159.725L165.639 109.493H182.853L145.364 30.0277H143.461ZM134.167 82.8973L144.411 58.3984L154.548 82.8973H134.167ZM282.847 52.1178H267.749V109.493H282.847V52.1178ZM363.101 94.7288L348.212 52.1178H332.582L356.234 112.841C353.803 117.134 349.792 119.015 345.356 119.015C341.869 119.015 338.598 118.179 336.802 116.713V129.38C338.807 130.953 343.031 131.998 347.152 131.998C355.387 131.998 364.366 127.287 369.114 115.352L394.775 52.1178H379.043L363.101 94.7288ZM410.376 35.784H425.371V52.1178H439.733V64.8879H425.371V89.2842C425.371 94.4135 428.224 97.4493 433.397 97.4493C435.399 97.4493 438.358 97.0313 439.733 96.1917V109.592C437.936 110.535 434.453 111.162 431.285 111.162C418.295 111.162 410.376 103.099 410.376 89.4895V64.8843H401.188V52.1142H410.376V35.784ZM468.265 52.1178H453.163V109.493H468.265V52.1178ZM527.517 66.1492C525.406 65.2069 521.285 63.7404 515.902 63.7404C504.071 63.7404 496.679 70.9632 496.679 80.8075C496.679 90.6518 504.071 98.0836 515.902 98.0836C521.288 98.0836 525.406 96.617 527.517 95.5684L527.73 108.548C524.669 110.117 519.598 111.165 514.85 111.165C495.205 111.165 482.006 97.5556 482.006 80.8038C482.006 64.052 495.312 50.5486 514.953 50.5486C519.598 50.5486 524.665 51.5972 527.73 53.1664L527.517 66.1455V66.1492ZM569.014 76.0925L562.469 73.3683C558.458 71.7955 557.083 70.6442 557.083 68.239C557.083 65.1996 560.676 62.9007 566.697 62.9007C571.973 62.9007 576.2 64.3673 579.265 66.0429V53.2728C576.728 51.9125 571.346 50.5486 566.066 50.5486C551.07 50.5486 541.882 58.4021 541.882 68.0337C541.882 75.4655 546.634 79.9715 555.081 83.319L561.945 86.1458C566.59 88.0303 568.49 89.8122 568.49 92.7416C568.49 95.6711 565.534 98.8132 557.824 98.8132C551.382 98.8132 545.153 96.6134 541.879 94.1056V106.773C545.05 109.182 551.173 111.169 558.565 111.169C574.931 111.169 582.957 101.955 582.957 92.8443C582.957 84.6792 578.627 79.9679 569.021 76.0925H569.014ZM462.637 43.6594C468.653 42.6072 472.668 36.9242 471.608 30.959C470.549 24.9937 464.814 21.012 458.802 22.0643C452.789 23.1165 448.767 28.7995 449.826 34.7647C450.886 40.73 456.624 44.7117 462.637 43.6594ZM204.393 54.3433C209.431 51.0582 215.451 49.137 221.933 49.137L221.937 49.1407C239.576 49.1407 253.875 63.3187 253.875 80.8075C253.875 98.2963 239.576 112.474 221.937 112.474C211.532 112.474 202.289 107.539 196.455 99.8985L195.689 98.8426L195.557 98.6592C192.283 93.9149 190.277 88.2393 190.028 82.1201C189.966 81.2365 189.925 80.3492 189.925 79.4436V27.8279H204.389V54.3433H204.393ZM205.607 80.8075C205.607 89.7462 212.914 96.991 221.93 96.991C230.945 96.991 238.252 89.7462 238.252 80.8075C238.252 71.8688 230.945 64.624 221.93 64.624C212.914 64.624 205.607 71.8688 205.607 80.8075Z" fill="white"/>
<path fill-rule="evenodd" clip-rule="evenodd" d="M116.39 9.4483L143.661 7.48677C144.024 7.4721 144.123 7.9744 143.778 8.09539L115.246 17.5694C114.762 17.6757 106.678 19.5383 107.114 30.7538C107.528 41.3827 105.655 68.4921 79.0549 86.8865C71.4251 92.1625 66.4718 100.478 65.4269 109.64C64.8439 114.748 65.5992 123.723 66.5451 131.364C66.6184 131.965 65.8045 132.24 65.4965 131.716C61.5881 125.123 50.1379 101.629 51.4872 72.0706C51.5605 70.417 50.2003 69.0384 48.532 69.0751C40.048 69.2511 16.7296 68.1072 1.62034 53.8998C1.59467 53.8742 1.55068 53.8375 1.49568 53.7898C0.839396 53.2215 -1.53644 51.1647 1.53601 50.7834L44.6236 45.2838C48.3707 44.8181 53.5624 44.0335 56.2205 41.3681C57.8374 39.7475 58.0794 38.9959 58.941 36.1728C62.3544 24.9939 70.2445 1.34187 94.9121 0.0109596C94.9121 0.0109596 104.104 -0.630662 112.478 7.90474C113.501 8.94966 114.923 9.50696 116.39 9.43363L116.386 9.44096L116.39 9.4483ZM27.3255 42.16C24.9864 42.4533 22.6545 41.368 21.287 39.3479L8.20888 20.0955C7.70291 19.3476 8.43253 18.409 9.23914 18.7646L51.0582 37.214C52.0151 37.6393 51.8428 39.0839 50.8235 39.2085L27.3255 42.16Z" fill="url(#paint0_linear_3550_6999)"/>
</g>
<path d="M655.608 115.547C643.811 115.547 633.88 112.747 625.816 107.147V90.3471C629.102 93.1844 633.432 95.6484 638.808 97.7391C644.259 99.7551 649.635 100.763 654.936 100.763C659.342 100.763 662.963 99.9791 665.8 98.4111C668.638 96.7684 670.056 94.5284 670.056 91.6911C670.056 88.6298 668.712 86.4644 666.024 85.1951C664.904 84.5231 663.411 83.8511 661.544 83.1791L658.856 82.2831L652.584 80.3791L646.76 78.4751C645.939 78.2511 644.184 77.6164 641.496 76.5711C639.182 75.6751 637.502 74.8911 636.456 74.2191C632.574 71.5311 630.11 69.2538 629.064 67.3871C627.272 63.8031 626.376 60.1444 626.376 56.4111C626.376 49.4671 629.027 44.0164 634.328 40.0591C639.63 36.0271 646.835 34.0111 655.944 34.0111C665.128 34.0111 673.678 36.1764 681.592 40.5071V56.1871C673.603 51.2591 665.128 48.7951 656.168 48.7951C647.283 48.7951 642.84 51.3711 642.84 56.5231C642.84 58.7631 644.222 60.5551 646.984 61.8991C648.627 62.7951 650.755 63.5791 653.368 64.2511C656.878 65.2218 659.715 66.0431 661.88 66.7151C668.376 68.7311 674.051 71.4564 678.904 74.8911C684.131 78.5498 686.744 84.0004 686.744 91.2431C686.744 98.7844 683.795 104.72 677.896 109.051C671.998 113.382 664.568 115.547 655.608 115.547Z" fill="white"/>
<path d="M705.357 96.6191V71.3071H694.381V58.0911H705.357V42.7471H721.149V58.0911H737.053V71.3071H721.149V93.4831C721.149 96.2458 721.747 98.2618 722.941 99.5311C724.136 100.726 726.077 101.323 728.765 101.323C731.528 101.323 734.253 100.651 736.941 99.3071V112.411C733.656 114.427 729.213 115.435 723.613 115.435C711.443 115.435 705.357 109.163 705.357 96.6191Z" fill="white"/>
<path d="M789.851 93.7071V58.0911H805.643V113.979H789.851V107.259C784.848 112.71 778.614 115.435 771.147 115.435C764.726 115.435 759.723 113.419 756.139 109.387C752.555 105.28 750.763 99.6058 750.763 92.3631V58.0911H766.555V89.1151C766.555 93.1471 767.526 96.1338 769.467 98.0751C771.483 100.016 774.059 100.987 777.195 100.987C779.584 100.987 781.936 100.315 784.251 98.9711C786.64 97.5524 788.507 95.7978 789.851 93.7071Z" fill="white"/>
<path d="M914.358 113.979H898.566V58.0911H914.358V113.979ZM896.998 43.3071C896.998 40.6191 897.894 38.3791 899.686 36.5871C901.553 34.7204 903.793 33.7871 906.406 33.7871C909.019 33.7871 911.222 34.7204 913.014 36.5871C914.881 38.3791 915.814 40.6191 915.814 43.3071C915.814 45.9204 914.881 48.1604 913.014 50.0271C911.222 51.8191 909.019 52.7151 906.406 52.7151C903.793 52.7151 901.553 51.8191 899.686 50.0271C897.894 48.1604 896.998 45.9204 896.998 43.3071Z" fill="white"/>
<path d="M944.707 85.9791C944.707 90.4591 946.163 94.1924 949.075 97.1791C951.987 100.166 955.683 101.659 960.163 101.659C964.643 101.659 968.339 100.166 971.251 97.1791C974.163 94.1178 975.619 90.3844 975.619 85.9791C975.619 81.4991 974.163 77.8031 971.251 74.8911C968.339 71.9044 964.643 70.4111 960.163 70.4111C955.683 70.4111 951.987 71.9044 949.075 74.8911C946.163 77.8031 944.707 81.4991 944.707 85.9791ZM929.139 85.9791C929.139 77.6911 932.051 70.7471 937.875 65.1471C943.624 59.4724 951.053 56.6351 960.163 56.6351C969.272 56.6351 976.701 59.4724 982.451 65.1471C988.275 70.8218 991.187 77.7658 991.187 85.9791C991.187 94.3418 988.275 101.36 982.451 107.035C976.627 112.635 969.197 115.435 960.163 115.435C951.128 115.435 943.699 112.635 937.875 107.035C932.051 101.36 929.139 94.3418 929.139 85.9791Z" fill="white"/>
<defs>
<linearGradient id="paint0_linear_3550_6999" x1="21.6976" y1="86.7949" x2="142.077" y2="-2.50054" gradientUnits="userSpaceOnUse">
<stop offset="0.03" stop-color="#007CD8"/>
<stop offset="0.52" stop-color="#00B15C"/>
<stop offset="0.94" stop-color="#FFD600"/>
</linearGradient>
<clipPath id="clip0_3550_6999">
<rect width="583" height="132" fill="white"/>
</clipPath>
</defs>
</svg>
